# xmcd CD database file
#
# Track frame offsets:
#	150
#	17652
#	39077
#	60666
#	82190
#	103996
#
# Disc length: 1633 seconds
#
# Revision: 0
# Processed by: cddbd v1.5.2PL0 Copyright (c) Steve Scherf et al.
# Submitted via: CDex 1.51
#
DISCID=45065f06
DTITLE=THE NAOKI - Easy Does It
DYEAR=2007
DGENRE=Country
TTITLE0=Let's Go Dancing
TTITLE1=雨上がりの東京
TTITLE2=おお撃たれた
TTITLE3=女神が泣いている
TTITLE4=さよならをいえば
TTITLE5=Our Grandpa
EXTD=YEAR: 2007
EXTT0=
EXTT1=
EXTT2=
EXTT3=
EXTT4=
EXTT5=
PLAYORDER=
